<svg width="183" height="24" viewBox="0 0 183 24" fill="none" xmlns="http://www.w3.org/2000/svg">
<path d="M10.1055 0.983999C9.3375 1.02667 8.77217 1.112 8.4095 1.24C8.06817 1.368 7.8335 1.61333 7.7055 1.976C7.5775 2.33867 7.5135 2.92533 7.5135 3.736V19.992C7.5135 20.6747 7.56683 21.176 7.6735 21.496C7.78017 21.7947 7.9615 21.9973 8.2175 22.104C8.49483 22.2107 8.93217 22.264 9.5295 22.264H11.0975C12.5482 22.264 13.7962 21.6133 14.8415 20.312C15.9082 19.0107 16.6015 17.2827 16.9215 15.128H17.6575C17.5935 15.8533 17.5615 16.792 17.5615 17.944C17.5615 19.992 17.6362 21.6773 17.7855 23C16.3348 22.936 13.8922 22.904 10.4575 22.904C5.80683 22.904 2.3295 22.936 0.0255001 23V22.36C0.7295 22.3173 1.2415 22.232 1.5615 22.104C1.90283 21.976 2.12683 21.7307 2.2335 21.368C2.3615 21.0053 2.4255 20.4187 2.4255 19.608V3.736C2.4255 2.92533 2.3615 2.33867 2.2335 1.976C2.12683 1.61333 1.90283 1.368 1.5615 1.24C1.2415 1.112 0.7295 1.02667 0.0255001 0.983999V0.344C1.1135 0.407999 2.79883 0.439999 5.0815 0.439999C7.2575 0.439999 8.93217 0.407999 10.1055 0.344V0.983999ZM35.204 19.512C35.204 20.4933 35.3533 21.208 35.652 21.656C35.972 22.104 36.5053 22.328 37.252 22.328V23C36.5907 22.936 35.9293 22.904 35.268 22.904C33.412 22.904 31.8547 23.0533 30.596 23.352V20.472C29.6147 22.456 27.8973 23.448 25.444 23.448C23.844 23.448 22.6813 23.032 21.956 22.2C21.6147 21.7947 21.3587 21.272 21.188 20.632C21.0387 19.9707 20.964 19.1067 20.964 18.04V9.944C20.964 8.96267 20.804 8.248 20.484 7.8C20.1853 7.352 19.6627 7.128 18.916 7.128V6.456C19.5773 6.52 20.2387 6.552 20.9 6.552C22.756 6.552 24.3133 6.40267 25.572 6.104V19.352C25.572 20.248 25.7 20.92 25.956 21.368C26.2333 21.816 26.7453 22.04 27.492 22.04C28.3453 22.04 29.0707 21.688 29.668 20.984C30.2867 20.2587 30.596 19.3733 30.596 18.328V9.944C30.596 8.96267 30.436 8.248 30.116 7.8C29.8173 7.352 29.2947 7.128 28.548 7.128V6.456C29.2307 6.52 29.892 6.552 30.532 6.552C32.388 6.552 33.9453 6.40267 35.204 6.104V19.512ZM53.2663 20.728C53.6076 21.2187 53.9063 21.592 54.1623 21.848C54.4183 22.104 54.7169 22.264 55.0583 22.328V23C53.3516 22.9147 52.2103 22.872 51.6343 22.872C50.9943 22.872 49.6076 22.9147 47.4743 23V22.328C47.7943 22.328 48.0503 22.2747 48.2423 22.168C48.4556 22.0613 48.5623 21.9013 48.5623 21.688C48.5623 21.56 48.5089 21.4107 48.4023 21.24L45.0743 16.28L43.9543 17.688C43.2503 18.6053 42.8983 19.4587 42.8983 20.248C42.8983 20.8453 43.1009 21.336 43.5063 21.72C43.9329 22.0827 44.4983 22.296 45.2023 22.36V23C43.9649 22.936 42.4289 22.904 40.5943 22.904C39.7196 22.904 38.9729 22.936 38.3543 23V22.36C38.8449 22.1893 39.3143 21.912 39.7623 21.528C40.2103 21.144 40.7116 20.6 41.2663 19.896L44.6903 15.704L39.9863 8.728C39.5809 8.152 39.2609 7.75733 39.0263 7.544C38.7916 7.30933 38.5143 7.17067 38.1943 7.128V6.456C40.0716 6.54133 41.3409 6.584 42.0023 6.584C42.5569 6.584 43.8156 6.54133 45.7783 6.456V7.128C45.4583 7.128 45.1916 7.18133 44.9783 7.288C44.7863 7.39467 44.6903 7.55467 44.6903 7.768C44.6903 7.93867 44.7436 8.088 44.8503 8.216L47.8583 12.696L49.0743 11.096C49.8209 10.1147 50.1943 9.29333 50.1943 8.632C50.1943 8.184 50.0236 7.832 49.6823 7.576C49.3623 7.29867 48.8823 7.13867 48.2423 7.096V6.456C49.4796 6.52 50.6849 6.552 51.8583 6.552C52.7543 6.552 53.5116 6.52 54.1303 6.456V7.096C53.2343 7.39467 52.2529 8.216 51.1863 9.56L48.2423 13.24L53.2663 20.728ZM77.2385 0.983999C76.5345 1.09067 76.0118 1.272 75.6705 1.528C75.3505 1.784 75.1265 2.18933 74.9985 2.744C74.8918 3.29867 74.8385 4.12 74.8385 5.208V23.064L74.0705 23.032L73.2065 23.064L59.3185 5.464V17.752C59.3185 19.0107 59.3825 19.9387 59.5105 20.536C59.6385 21.112 59.9158 21.5387 60.3425 21.816C60.7692 22.072 61.4625 22.2533 62.4225 22.36V23C61.5905 22.936 60.4385 22.904 58.9665 22.904C57.7932 22.904 56.8652 22.936 56.1825 23V22.36C56.8865 22.2533 57.3985 22.072 57.7185 21.816C58.0598 21.56 58.2838 21.1547 58.3905 20.6C58.5185 20.0453 58.5825 19.224 58.5825 18.136V3.736C58.5825 2.92533 58.5185 2.33867 58.3905 1.976C58.2838 1.61333 58.0598 1.368 57.7185 1.24C57.3985 1.112 56.8865 1.02667 56.1825 0.983999V0.344C56.8652 0.407999 57.7932 0.439999 58.9665 0.439999C60.0332 0.439999 60.9505 0.407999 61.7185 0.344L74.1025 15.608V5.592C74.1025 4.33333 74.0385 3.416 73.9105 2.84C73.7825 2.24266 73.5052 1.816 73.0785 1.56C72.6518 1.28267 71.9585 1.09067 70.9985 0.983999V0.344C71.8305 0.407999 72.9825 0.439999 74.4545 0.439999C75.6492 0.439999 76.5772 0.407999 77.2385 0.344V0.983999ZM97.302 20.312C97.5793 21.016 97.8993 21.528 98.262 21.848C98.6247 22.168 98.9767 22.3387 99.318 22.36V23C98.038 22.936 96.4167 22.904 94.454 22.904C92.278 22.904 90.6567 22.936 89.59 23V22.36C90.4007 22.3173 90.9767 22.2213 91.318 22.072C91.6593 21.9013 91.83 21.6133 91.83 21.208C91.83 20.824 91.702 20.312 91.446 19.672L89.526 14.424H82.55L81.718 16.632C81.1207 18.168 80.822 19.352 80.822 20.184C80.822 20.9733 81.0567 21.528 81.526 21.848C82.0167 22.1467 82.7313 22.3173 83.67 22.36V23C82.2193 22.936 80.8967 22.904 79.702 22.904C78.7207 22.904 77.91 22.936 77.27 23V22.36C78.3153 22.168 79.2327 21.048 80.022 19L87.318 0.279999C87.5527 0.301332 87.926 0.311998 88.438 0.311998C88.95 0.311998 89.3127 0.301332 89.526 0.279999L97.302 20.312ZM89.302 13.784L86.134 5.144L82.806 13.784H89.302ZM109.445 0.983999C108.719 1.02667 108.197 1.112 107.877 1.24C107.557 1.368 107.333 1.61333 107.205 1.976C107.098 2.33867 107.045 2.92533 107.045 3.736V19.608C107.045 20.4187 107.098 21.0053 107.205 21.368C107.333 21.7307 107.557 21.976 107.877 22.104C108.197 22.232 108.719 22.3173 109.445 22.36V23C108.293 22.936 106.682 22.904 104.613 22.904C102.33 22.904 100.645 22.936 99.5568 23V22.36C100.261 22.3173 100.773 22.232 101.093 22.104C101.434 21.976 101.658 21.7307 101.765 21.368C101.893 21.0053 101.957 20.4187 101.957 19.608V3.736C101.957 2.92533 101.893 2.33867 101.765 1.976C101.658 1.61333 101.434 1.368 101.093 1.24C100.773 1.112 100.261 1.02667 99.5568 0.983999V0.344C100.645 0.407999 102.33 0.439999 104.613 0.439999C106.682 0.439999 108.293 0.407999 109.445 0.344V0.983999ZM121.668 0.983999C120.9 1.02667 120.335 1.112 119.972 1.24C119.631 1.368 119.396 1.61333 119.268 1.976C119.14 2.33867 119.076 2.92533 119.076 3.736V19.992C119.076 20.6747 119.129 21.176 119.236 21.496C119.343 21.7947 119.524 21.9973 119.78 22.104C120.057 22.2107 120.495 22.264 121.092 22.264H122.66C124.111 22.264 125.359 21.6133 126.404 20.312C127.471 19.0107 128.164 17.2827 128.484 15.128H129.22C129.156 15.8533 129.124 16.792 129.124 17.944C129.124 19.992 129.199 21.6773 129.348 23C127.897 22.936 125.455 22.904 122.02 22.904C117.369 22.904 113.892 22.936 111.588 23V22.36C112.292 22.3173 112.804 22.232 113.124 22.104C113.465 21.976 113.689 21.7307 113.796 21.368C113.924 21.0053 113.988 20.4187 113.988 19.608V3.736C113.988 2.92533 113.924 2.33867 113.796 1.976C113.689 1.61333 113.465 1.368 113.124 1.24C112.804 1.112 112.292 1.02667 111.588 0.983999V0.344C112.676 0.407999 114.361 0.439999 116.644 0.439999C118.82 0.439999 120.495 0.407999 121.668 0.344V0.983999ZM142.543 11.096C145.316 11.3093 147.353 11.9493 148.655 13.016C149.956 14.0827 150.607 15.3413 150.607 16.792C150.607 18.776 149.828 20.312 148.271 21.4C146.713 22.4667 144.548 23 141.775 23C141.156 23 140.633 22.9893 140.207 22.968C138.799 22.9253 137.423 22.904 136.079 22.904C133.881 22.904 132.239 22.936 131.151 23V22.36C131.855 22.3173 132.367 22.232 132.687 22.104C133.028 21.976 133.252 21.7307 133.359 21.368C133.487 21.0053 133.551 20.4187 133.551 19.608V3.736C133.551 2.92533 133.487 2.33867 133.359 1.976C133.252 1.61333 133.028 1.368 132.687 1.24C132.367 1.112 131.855 1.02667 131.151 0.983999V0.344C132.239 0.407999 133.86 0.439999 136.015 0.439999L139.567 0.407999C139.993 0.386666 140.484 0.375999 141.039 0.375999C143.599 0.375999 145.551 0.834666 146.895 1.752C148.26 2.66933 148.943 3.88533 148.943 5.4C148.943 6.63733 148.399 7.78933 147.311 8.856C146.244 9.92267 144.655 10.648 142.543 11.032V11.096ZM140.623 0.983999C140.047 0.983999 139.62 1.05867 139.343 1.208C139.087 1.35733 138.905 1.624 138.799 2.008C138.692 2.392 138.639 2.968 138.639 3.736V10.968H140.015C141.401 10.968 142.372 10.4987 142.927 9.56C143.481 8.6 143.759 7.33067 143.759 5.752C143.759 4.152 143.503 2.95733 142.991 2.168C142.5 1.37867 141.711 0.983999 140.623 0.983999ZM140.847 22.264C143.812 22.264 145.295 20.3973 145.295 16.664C145.295 14.9787 144.868 13.6987 144.015 12.824C143.161 11.9493 141.817 11.512 139.983 11.512H138.639V19.608C138.639 20.376 138.692 20.9413 138.799 21.304C138.905 21.6667 139.108 21.9227 139.407 22.072C139.727 22.2 140.207 22.264 140.847 22.264ZM156.555 23.224C155.189 23.224 154.165 22.872 153.483 22.168C152.821 21.464 152.491 20.536 152.491 19.384C152.491 18.424 152.736 17.6347 153.227 17.016C153.739 16.376 154.347 15.8853 155.051 15.544C155.776 15.2027 156.693 14.84 157.803 14.456C158.976 14.0507 159.829 13.688 160.363 13.368C160.917 13.0267 161.195 12.568 161.195 11.992V9.496C161.195 8.6 160.981 7.90667 160.555 7.416C160.149 6.904 159.509 6.648 158.635 6.648C157.611 6.648 156.832 6.904 156.299 7.416C156.896 7.62933 157.355 7.94933 157.675 8.376C158.016 8.80267 158.187 9.304 158.187 9.88C158.187 10.6053 157.941 11.1813 157.451 11.608C156.96 12.0347 156.363 12.248 155.659 12.248C154.912 12.248 154.336 12.0133 153.931 11.544C153.525 11.0747 153.323 10.488 153.323 9.784C153.323 9.18667 153.461 8.68533 153.739 8.28C154.037 7.85333 154.485 7.45867 155.083 7.096C155.659 6.75467 156.363 6.488 157.195 6.296C158.048 6.104 158.976 6.008 159.979 6.008C161.024 6.008 161.931 6.11467 162.699 6.328C163.467 6.54133 164.107 6.904 164.619 7.416C165.088 7.88533 165.397 8.46133 165.547 9.144C165.717 9.82667 165.803 10.7547 165.803 11.928V20.632C165.803 21.144 165.845 21.5067 165.931 21.72C166.037 21.9333 166.229 22.04 166.507 22.04C166.827 22.04 167.211 21.8587 167.659 21.496L167.979 22.04C167.019 22.8293 165.845 23.224 164.459 23.224C163.285 23.224 162.464 22.9893 161.995 22.52C161.525 22.0507 161.28 21.4213 161.259 20.632C160.192 22.36 158.624 23.224 156.555 23.224ZM159.019 21.176C159.851 21.176 160.576 20.7387 161.195 19.864V13.304C160.939 13.7307 160.395 14.2 159.562 14.712C158.731 15.2453 158.101 15.7787 157.675 16.312C157.248 16.8453 157.035 17.6133 157.035 18.616C157.035 19.4907 157.216 20.1413 157.579 20.568C157.941 20.9733 158.421 21.176 159.019 21.176ZM179.901 6.008C180.861 6.008 181.586 6.296 182.077 6.872C182.568 7.448 182.813 8.14133 182.813 8.952C182.813 9.74133 182.578 10.392 182.109 10.904C181.661 11.3947 181.064 11.64 180.317 11.64C179.592 11.64 179.016 11.4587 178.589 11.096C178.162 10.712 177.949 10.2107 177.949 9.592C177.949 8.568 178.418 7.736 179.357 7.096C179.272 7.07467 179.144 7.064 178.973 7.064C178.76 7.064 178.589 7.08533 178.461 7.128C177.65 7.256 176.957 7.74667 176.381 8.6C175.826 9.45333 175.549 10.328 175.549 11.224V19.704C175.549 20.6853 175.784 21.368 176.253 21.752C176.744 22.136 177.512 22.328 178.557 22.328V23C178.258 23 178.013 22.9893 177.821 22.968C175.645 22.904 174.194 22.872 173.469 22.872C172.893 22.872 171.581 22.904 169.533 22.968C169.362 22.9893 169.149 23 168.893 23V22.328C169.661 22.328 170.194 22.168 170.493 21.848C170.792 21.5067 170.941 20.8987 170.941 20.024V9.944C170.941 8.96267 170.792 8.248 170.493 7.8C170.194 7.352 169.661 7.128 168.893 7.128V6.456C169.576 6.52 170.237 6.552 170.877 6.552C172.776 6.552 174.333 6.40267 175.549 6.104V9.08C175.954 8.16267 176.541 7.42667 177.309 6.872C178.077 6.296 178.941 6.008 179.901 6.008Z" fill="white"/>
</svg>
